<?xml version="1.0" encoding="iso-8859-1"?>
<!-- Uploaded to: SVG Repo, www.svgrepo.com, Generator: SVG Repo Mixer Tools -->
<svg fill="#000000" height="800px" width="800px" version="1.1" id="Capa_1" xmlns="http://www.w3.org/2000/svg" xmlns:xlink="http://www.w3.org/1999/xlink" 
	 viewBox="0 0 479 479" xml:space="preserve">
<g>
	<path d="M408.852,70.148C363.616,24.912,303.473,0,239.5,0S115.384,24.912,70.148,70.148C24.913,115.384,0,175.527,0,239.5
		s24.913,124.116,70.148,169.352C115.384,454.088,175.527,479,239.5,479s124.116-24.912,169.352-70.148
		C454.087,363.616,479,303.473,479,239.5S454.087,115.384,408.852,70.148z M398.246,398.246C355.843,440.648,299.466,464,239.5,464
		s-116.343-23.352-158.746-65.754C38.352,355.843,15,299.466,15,239.5S38.352,123.157,80.754,80.755
		C123.157,38.352,179.534,15,239.5,15s116.343,23.352,158.746,65.755C440.648,123.157,464,179.534,464,239.5
		S440.648,355.843,398.246,398.246z"/>
	<path d="M239.5,144c-52.659,0-95.5,42.841-95.5,95.5s42.841,95.5,95.5,95.5s95.5-42.841,95.5-95.5S292.159,144,239.5,144z
		 M239.5,320c-44.388,0-80.5-36.112-80.5-80.5s36.112-80.5,80.5-80.5s80.5,36.112,80.5,80.5S283.888,320,239.5,320z"/>
	<path d="M435.354,263.875C440.813,256.931,447,249.06,447,239.5c0-9.56-6.187-17.43-11.646-24.374
		c-3.566-4.536-7.253-9.227-7.999-12.998c-0.798-4.036,0.854-9.943,2.452-15.656c2.339-8.365,4.991-17.845,1.442-26.402
		c-3.613-8.714-12.29-13.58-19.945-17.873c-5.093-2.856-10.359-5.81-12.557-9.093c-2.238-3.343-2.968-9.384-3.675-15.226
		c-1.047-8.666-2.235-18.489-8.844-25.098c-6.609-6.609-16.431-7.797-25.098-8.845c-5.842-0.707-11.883-1.438-15.226-3.676
		c-3.284-2.198-6.237-7.465-9.094-12.558c-4.293-7.656-9.16-16.333-17.875-19.947c-8.556-3.549-18.039-0.898-26.404,1.441
		c-5.715,1.598-11.624,3.249-15.659,2.451c-3.771-0.746-8.462-4.433-12.999-8C256.931,38.187,249.06,32,239.5,32
		c-9.56,0-17.43,6.187-24.374,11.645c-4.537,3.566-9.228,7.253-12.999,7.999c-4.035,0.8-9.944-0.854-15.656-2.452
		c-8.364-2.339-17.845-4.99-26.402-1.443c-8.714,3.614-13.58,12.29-17.873,19.945c-2.856,5.093-5.81,10.359-9.093,12.557
		c-3.343,2.238-9.384,2.969-15.226,3.675c-8.666,1.048-18.489,2.235-25.098,8.844c-6.609,6.609-7.797,16.432-8.846,25.098
		c-0.707,5.842-1.438,11.883-3.675,15.226c-2.199,3.284-7.465,6.238-12.559,9.094c-7.655,4.293-16.333,9.159-19.946,17.875
		c-3.549,8.557-0.898,18.039,1.441,26.405c1.597,5.714,3.249,11.622,2.451,15.658c-0.746,3.771-4.434,8.462-8,12.999
		C38.187,222.069,32,229.94,32,239.5c0,9.56,6.187,17.43,11.646,24.374c3.566,4.536,7.253,9.227,7.999,12.998
		c0.798,4.036-0.854,9.943-2.452,15.656c-2.339,8.365-4.991,17.845-1.442,26.402c3.613,8.714,12.29,13.58,19.945,17.873
		c5.093,2.856,10.359,5.81,12.557,9.093c2.238,3.343,2.968,9.384,3.675,15.226c1.047,8.666,2.235,18.489,8.844,25.098
		c6.609,6.609,16.431,7.797,25.098,8.845c5.842,0.707,11.883,1.437,15.226,3.676c3.284,2.199,6.237,7.465,9.094,12.559
		c4.293,7.656,9.16,16.333,17.875,19.947c8.557,3.549,18.039,0.898,26.404-1.441c5.714-1.597,11.621-3.249,15.659-2.451
		c3.771,0.746,8.462,4.434,12.999,8C222.069,440.813,229.94,447,239.5,447c9.56,0,17.43-6.187,24.374-11.645
		c4.537-3.566,9.227-7.253,12.999-8c4.033-0.798,9.942,0.854,15.656,2.452c8.365,2.34,17.846,4.991,26.402,1.442
		c8.714-3.613,13.58-12.29,17.873-19.944c2.856-5.093,5.81-10.359,9.093-12.558c3.343-2.238,9.384-2.968,15.226-3.675
		c8.666-1.048,18.489-2.235,25.098-8.844c6.609-6.609,7.797-16.432,8.846-25.098c0.707-5.842,1.438-11.883,3.675-15.226
		c2.199-3.284,7.465-6.238,12.559-9.094c7.655-4.293,16.333-9.159,19.946-17.875c3.549-8.557,0.898-18.039-1.441-26.405
		c-1.597-5.714-3.249-11.622-2.451-15.658C428.101,273.103,431.789,268.412,435.354,263.875z M423.562,254.605
		c-4.659,5.927-9.477,12.057-10.921,19.358c-1.492,7.543,0.649,15.202,2.72,22.608c1.767,6.319,3.593,12.853,2.031,16.62
		c-1.625,3.918-7.625,7.283-13.428,10.538c-6.632,3.719-13.49,7.565-17.686,13.832c-4.234,6.325-5.184,14.177-6.103,21.77
		c-0.793,6.562-1.614,13.346-4.561,16.292c-2.946,2.946-9.73,3.766-16.292,4.559c-7.594,0.918-15.445,1.867-21.771,6.102
		c-6.266,4.195-10.112,11.052-13.832,17.685c-3.254,5.802-6.619,11.802-10.536,13.426c-3.765,1.56-10.298-0.266-16.616-2.033
		c-7.406-2.071-15.063-4.212-22.606-2.721c-7.301,1.444-13.431,6.262-19.358,10.921C249.326,427.71,243.87,432,239.5,432
		c-4.37,0-9.828-4.29-15.105-8.438c-5.927-4.659-12.056-9.477-19.357-10.921c-1.758-0.348-3.522-0.498-5.288-0.498
		c-5.812,0-11.641,1.629-17.321,3.218c-6.319,1.767-12.852,3.595-16.62,2.031c-3.918-1.625-7.284-7.625-10.538-13.428
		c-3.719-6.632-7.565-13.49-13.831-17.685c-6.325-4.235-14.177-5.184-21.77-6.103c-6.562-0.794-13.346-1.615-16.292-4.56
		c-2.946-2.946-3.766-9.731-4.559-16.292c-0.918-7.594-1.867-15.445-6.102-21.771c-4.195-6.266-11.053-10.112-17.685-13.831
		c-5.802-3.254-11.802-6.619-13.426-10.536c-1.562-3.766,0.266-10.299,2.033-16.616c2.071-7.406,4.213-15.064,2.721-22.607
		c-1.444-7.301-6.262-13.43-10.921-19.357C51.29,249.326,47,243.87,47,239.5c0-4.37,4.29-9.828,8.438-15.105
		c4.659-5.927,9.477-12.057,10.921-19.358c1.492-7.543-0.649-15.202-2.72-22.608c-1.767-6.319-3.593-12.853-2.031-16.62
		c1.625-3.918,7.625-7.283,13.428-10.538c6.632-3.719,13.49-7.565,17.686-13.832c4.234-6.325,5.184-14.177,6.103-21.77
		c0.793-6.562,1.614-13.346,4.561-16.292c2.946-2.946,9.73-3.766,16.292-4.559c7.594-0.918,15.445-1.867,21.771-6.102
		c6.266-4.195,10.112-11.053,13.832-17.685c3.254-5.802,6.619-11.802,10.536-13.426c3.765-1.562,10.299,0.265,16.616,2.032
		c7.406,2.072,15.064,4.214,22.607,2.721c7.301-1.444,13.43-6.262,19.357-10.921C229.673,51.29,235.13,47,239.5,47
		c4.37,0,9.828,4.29,15.105,8.438c5.927,4.659,12.056,9.477,19.357,10.921c7.542,1.492,15.202-0.649,22.609-2.719
		c6.319-1.767,12.853-3.594,16.619-2.031c3.918,1.625,7.284,7.625,10.538,13.428c3.719,6.632,7.565,13.49,13.831,17.686
		c6.325,4.235,14.177,5.184,21.77,6.103c6.562,0.794,13.346,1.615,16.292,4.56c2.946,2.946,3.766,9.731,4.559,16.292
		c0.918,7.594,1.867,15.445,6.102,21.771c4.195,6.266,11.053,10.112,17.685,13.831c5.802,3.254,11.802,6.619,13.426,10.536
		c1.562,3.766-0.266,10.299-2.033,16.616c-2.071,7.406-4.213,15.064-2.721,22.607c1.444,7.301,6.262,13.43,10.921,19.357
		C427.71,229.674,432,235.13,432,239.5C432,243.87,427.71,249.328,423.562,254.605z"/>
	<path d="M199.5,119c1.919,0,3.839-0.732,5.303-2.197l16-16c2.929-2.929,2.929-7.677,0-10.606c-2.929-2.929-7.678-2.929-10.606,0
		l-16,16c-2.929,2.929-2.929,7.677,0,10.606C195.661,118.268,197.581,119,199.5,119z"/>
	<path d="M373.74,171.34c-2.298-3.446-6.954-4.377-10.4-2.08c-3.447,2.298-4.378,6.954-2.08,10.401l16,24
		c1.445,2.168,3.823,3.341,6.247,3.341c1.43,0,2.875-0.408,4.153-1.26c3.447-2.298,4.378-6.954,2.08-10.401L373.74,171.34z"/>
	<path d="M306.854,344.792c-3.703-1.852-8.209-0.351-10.062,3.354l-8,16c-1.853,3.705-0.351,8.21,3.354,10.062
		c1.077,0.538,2.221,0.793,3.348,0.793c2.751,0,5.4-1.52,6.714-4.148l8-16C312.061,351.149,310.559,346.644,306.854,344.792z"/>
	<path d="M198.615,349.128c-1.31-3.93-5.56-6.053-9.487-4.743l-24,8c-3.93,1.31-6.053,5.557-4.744,9.487
		c1.048,3.143,3.974,5.13,7.114,5.13c0.786,0,1.586-0.125,2.373-0.387l24-8C197.801,357.305,199.925,353.058,198.615,349.128z"/>
	<path d="M98.197,242.197c-2.929,2.929-2.929,7.677,0,10.606l16,16c1.464,1.465,3.384,2.197,5.303,2.197s3.839-0.732,5.303-2.197
		c2.929-2.929,2.929-7.677,0-10.606l-16-16C105.875,239.268,101.125,239.268,98.197,242.197z"/>
	<path d="M138.854,144.792c-3.703-1.852-8.209-0.351-10.062,3.354l-8,16c-1.853,3.705-0.351,8.21,3.354,10.062
		c1.077,0.538,2.221,0.793,3.348,0.793c2.751,0,5.4-1.52,6.714-4.148l8-16C144.061,151.149,142.559,146.644,138.854,144.792z"/>
	<path d="M279.5,111c4.142,0,7.5-3.358,7.5-7.5v-8c0-4.142-3.358-7.5-7.5-7.5s-7.5,3.358-7.5,7.5v8
		C272,107.642,275.358,111,279.5,111z"/>
	<path d="M319.506,143.002c1.127,0,2.271-0.255,3.348-0.793l16-8c3.705-1.853,5.207-6.357,3.354-10.062
		c-1.853-3.705-6.356-5.207-10.062-3.354l-16,8c-3.705,1.853-5.207,6.357-3.354,10.062
		C314.106,141.482,316.754,143.002,319.506,143.002z"/>
	<path d="M383.5,256h-16c-4.142,0-7.5,3.358-7.5,7.5s3.358,7.5,7.5,7.5h16c4.142,0,7.5-3.358,7.5-7.5S387.642,256,383.5,256z"/>
	<path d="M362.854,304.792l-16-8c-3.703-1.852-8.209-0.351-10.062,3.354c-1.853,3.705-0.351,8.21,3.354,10.062l16,8
		c1.077,0.538,2.221,0.793,3.348,0.793c2.751,0,5.4-1.52,6.714-4.148C368.061,311.149,366.559,306.644,362.854,304.792z"/>
	<path d="M247.5,360c-4.142,0-7.5,3.358-7.5,7.5v24c0,4.142,3.358,7.5,7.5,7.5s7.5-3.358,7.5-7.5v-24
		C255,363.358,251.642,360,247.5,360z"/>
	<path d="M132.146,312.792l-16,8c-3.705,1.853-5.207,6.357-3.354,10.062c1.314,2.628,3.962,4.148,6.714,4.148
		c1.127,0,2.271-0.255,3.348-0.793l16-8c3.705-1.853,5.207-6.357,3.354-10.062C140.356,312.441,135.851,310.939,132.146,312.792z"/>
	<path d="M92.146,206.208l16,8c1.077,0.538,2.221,0.793,3.348,0.793c2.751,0,5.4-1.52,6.714-4.148
		c1.853-3.705,0.351-8.21-3.354-10.062l-16-8c-3.703-1.852-8.209-0.351-10.062,3.354C86.939,199.851,88.441,204.356,92.146,206.208z
		"/>
	<path d="M162.197,132.803c1.464,1.465,3.384,2.197,5.303,2.197s3.839-0.732,5.303-2.197c2.929-2.929,2.929-7.677,0-10.606l-8-8
		c-2.929-2.929-7.678-2.929-10.606,0c-2.929,2.929-2.929,7.677,0,10.606L162.197,132.803z"/>
	<path d="M250.197,132.803c1.464,1.465,3.384,2.197,5.303,2.197s3.839-0.732,5.303-2.197c2.929-2.929,2.929-7.677,0-10.606l-8-8
		c-2.929-2.929-7.678-2.929-10.606,0c-2.929,2.929-2.929,7.677,0,10.606L250.197,132.803z"/>
	<path d="M359.5,239c4.142,0,7.5-3.358,7.5-7.5v-8c0-4.142-3.358-7.5-7.5-7.5s-7.5,3.358-7.5,7.5v8
		C352,235.642,355.358,239,359.5,239z"/>
	<path d="M348.803,164.803c2.929-2.929,2.929-7.677,0-10.606c-2.929-2.929-7.678-2.929-10.606,0l-8,8
		c-2.929,2.929-2.929,7.677,0,10.606c1.464,1.465,3.384,2.197,5.303,2.197s3.839-0.732,5.303-2.197L348.803,164.803z"/>
	<path d="M343.5,344c-4.142,0-7.5,3.358-7.5,7.5v8c0,4.142,3.358,7.5,7.5,7.5s7.5-3.358,7.5-7.5v-8
		C351,347.358,347.642,344,343.5,344z"/>
	<path d="M202.197,378.197l-8,8c-2.929,2.929-2.929,7.677,0,10.606c1.464,1.464,3.384,2.197,5.303,2.197s3.839-0.732,5.303-2.197
		l8-8c2.929-2.929,2.929-7.677,0-10.606C209.875,375.268,205.125,375.268,202.197,378.197z"/>
	<path d="M100.803,282.197c-2.929-2.929-7.678-2.929-10.606,0c-2.929,2.929-2.929,7.677,0,10.606l8,8
		c1.464,1.465,3.384,2.197,5.303,2.197s3.839-0.732,5.303-2.197c2.929-2.929,2.929-7.677,0-10.606L100.803,282.197z"/>
</g>
</svg>